<mxfile host="app.diagrams.net" agent="Mozilla/5.0 (Windows NT 10.0; Win64; x64) AppleWebKit/537.36 (KHTML, like Gecko) Chrome/133.0.0.0 Safari/537.36 Edg/133.0.0.0" version="26.0.15">
  <diagram name="Page-1" id="UuCJ6fsK7zV0zCTbm2EQ">
    <mxGraphModel dx="786" dy="455" grid="1" gridSize="10" guides="1" tooltips="1" connect="1" arrows="1" fold="1" page="1" pageScale="1" pageWidth="850" pageHeight="1100" math="0" shadow="0">
      <root>
        <mxCell id="0" />
        <mxCell id="1" parent="0" />
        <mxCell id="BYHH9eYI5WnV_k_x5oV5-1" value="f(a, n)" style="rounded=0;whiteSpace=wrap;html=1;" vertex="1" parent="1">
          <mxGeometry x="280" y="90" width="80" height="30" as="geometry" />
        </mxCell>
        <mxCell id="BYHH9eYI5WnV_k_x5oV5-5" value="" style="edgeStyle=orthogonalEdgeStyle;rounded=0;orthogonalLoop=1;jettySize=auto;html=1;exitX=0.5;exitY=1;exitDx=0;exitDy=0;" edge="1" parent="1" source="BYHH9eYI5WnV_k_x5oV5-2" target="BYHH9eYI5WnV_k_x5oV5-4">
          <mxGeometry relative="1" as="geometry" />
        </mxCell>
        <mxCell id="BYHH9eYI5WnV_k_x5oV5-2" value="f(a, n/2)" style="rounded=0;whiteSpace=wrap;html=1;" vertex="1" parent="1">
          <mxGeometry x="280" y="160" width="80" height="30" as="geometry" />
        </mxCell>
        <mxCell id="BYHH9eYI5WnV_k_x5oV5-3" value="" style="endArrow=classic;html=1;rounded=0;exitX=0.5;exitY=1;exitDx=0;exitDy=0;" edge="1" parent="1" source="BYHH9eYI5WnV_k_x5oV5-1" target="BYHH9eYI5WnV_k_x5oV5-2">
          <mxGeometry width="50" height="50" relative="1" as="geometry">
            <mxPoint x="380" y="260" as="sourcePoint" />
            <mxPoint x="430" y="210" as="targetPoint" />
          </mxGeometry>
        </mxCell>
        <mxCell id="BYHH9eYI5WnV_k_x5oV5-4" value="f(a, n/4)" style="rounded=0;whiteSpace=wrap;html=1;" vertex="1" parent="1">
          <mxGeometry x="280" y="230" width="80" height="30" as="geometry" />
        </mxCell>
        <mxCell id="BYHH9eYI5WnV_k_x5oV5-7" value="" style="edgeStyle=orthogonalEdgeStyle;rounded=0;orthogonalLoop=1;jettySize=auto;html=1;exitX=0.5;exitY=1;exitDx=0;exitDy=0;" edge="1" parent="1" target="BYHH9eYI5WnV_k_x5oV5-8" source="BYHH9eYI5WnV_k_x5oV5-4">
          <mxGeometry relative="1" as="geometry">
            <mxPoint x="320" y="280" as="sourcePoint" />
            <Array as="points">
              <mxPoint x="320" y="290" />
              <mxPoint x="320" y="290" />
            </Array>
          </mxGeometry>
        </mxCell>
        <mxCell id="BYHH9eYI5WnV_k_x5oV5-8" value="f(a, n/8)" style="rounded=0;whiteSpace=wrap;html=1;" vertex="1" parent="1">
          <mxGeometry x="280" y="300" width="80" height="30" as="geometry" />
        </mxCell>
        <mxCell id="BYHH9eYI5WnV_k_x5oV5-9" value="f(a, 0)" style="rounded=0;whiteSpace=wrap;html=1;" vertex="1" parent="1">
          <mxGeometry x="280" y="370" width="80" height="30" as="geometry" />
        </mxCell>
        <mxCell id="BYHH9eYI5WnV_k_x5oV5-11" value="" style="endArrow=none;dashed=1;html=1;rounded=0;entryX=0.5;entryY=0;entryDx=0;entryDy=0;exitX=0.5;exitY=1;exitDx=0;exitDy=0;" edge="1" parent="1" source="BYHH9eYI5WnV_k_x5oV5-8" target="BYHH9eYI5WnV_k_x5oV5-9">
          <mxGeometry width="50" height="50" relative="1" as="geometry">
            <mxPoint x="380" y="260" as="sourcePoint" />
            <mxPoint x="430" y="210" as="targetPoint" />
          </mxGeometry>
        </mxCell>
        <mxCell id="BYHH9eYI5WnV_k_x5oV5-16" value="c" style="rounded=0;whiteSpace=wrap;html=1;" vertex="1" parent="1">
          <mxGeometry x="320" y="760" width="80" height="30" as="geometry" />
        </mxCell>
        <mxCell id="BYHH9eYI5WnV_k_x5oV5-17" value="f(n/2)" style="rounded=0;whiteSpace=wrap;html=1;" vertex="1" parent="1">
          <mxGeometry x="320" y="830" width="80" height="30" as="geometry" />
        </mxCell>
        <mxCell id="BYHH9eYI5WnV_k_x5oV5-18" value="" style="endArrow=classic;html=1;rounded=0;entryX=0.5;entryY=0;entryDx=0;entryDy=0;exitX=0.5;exitY=1;exitDx=0;exitDy=0;" edge="1" parent="1" source="BYHH9eYI5WnV_k_x5oV5-16" target="BYHH9eYI5WnV_k_x5oV5-17">
          <mxGeometry width="50" height="50" relative="1" as="geometry">
            <mxPoint x="390" y="800" as="sourcePoint" />
            <mxPoint x="340" y="850" as="targetPoint" />
          </mxGeometry>
        </mxCell>
        <mxCell id="BYHH9eYI5WnV_k_x5oV5-19" value="f(n)" style="rounded=0;whiteSpace=wrap;html=1;" vertex="1" parent="1">
          <mxGeometry x="320" y="640" width="80" height="30" as="geometry" />
        </mxCell>
        <mxCell id="BYHH9eYI5WnV_k_x5oV5-33" style="edgeStyle=orthogonalEdgeStyle;rounded=0;orthogonalLoop=1;jettySize=auto;html=1;exitX=0.5;exitY=1;exitDx=0;exitDy=0;entryX=0.5;entryY=0;entryDx=0;entryDy=0;" edge="1" parent="1" source="BYHH9eYI5WnV_k_x5oV5-21" target="BYHH9eYI5WnV_k_x5oV5-22">
          <mxGeometry relative="1" as="geometry" />
        </mxCell>
        <mxCell id="BYHH9eYI5WnV_k_x5oV5-21" value="c" style="rounded=0;whiteSpace=wrap;html=1;" vertex="1" parent="1">
          <mxGeometry x="320" y="990" width="80" height="30" as="geometry" />
        </mxCell>
        <mxCell id="BYHH9eYI5WnV_k_x5oV5-22" value="f(n/4)" style="rounded=0;whiteSpace=wrap;html=1;" vertex="1" parent="1">
          <mxGeometry x="320" y="1060" width="80" height="30" as="geometry" />
        </mxCell>
        <mxCell id="BYHH9eYI5WnV_k_x5oV5-24" value="c" style="rounded=0;whiteSpace=wrap;html=1;" vertex="1" parent="1">
          <mxGeometry x="320" y="920" width="80" height="30" as="geometry" />
        </mxCell>
        <mxCell id="BYHH9eYI5WnV_k_x5oV5-25" value="" style="endArrow=classic;html=1;rounded=0;exitX=0.5;exitY=1;exitDx=0;exitDy=0;entryX=0.5;entryY=0;entryDx=0;entryDy=0;" edge="1" parent="1" source="BYHH9eYI5WnV_k_x5oV5-24" target="BYHH9eYI5WnV_k_x5oV5-21">
          <mxGeometry width="50" height="50" relative="1" as="geometry">
            <mxPoint x="190" y="1030" as="sourcePoint" />
            <mxPoint x="190" y="1070" as="targetPoint" />
          </mxGeometry>
        </mxCell>
        <mxCell id="BYHH9eYI5WnV_k_x5oV5-26" value="c" style="rounded=0;whiteSpace=wrap;html=1;" vertex="1" parent="1">
          <mxGeometry x="320" y="1300" width="80" height="30" as="geometry" />
        </mxCell>
        <mxCell id="BYHH9eYI5WnV_k_x5oV5-27" value="f(n/8)" style="rounded=0;whiteSpace=wrap;html=1;" vertex="1" parent="1">
          <mxGeometry x="320" y="1370" width="80" height="30" as="geometry" />
        </mxCell>
        <mxCell id="BYHH9eYI5WnV_k_x5oV5-28" value="" style="endArrow=classic;html=1;rounded=0;entryX=0.5;entryY=0;entryDx=0;entryDy=0;exitX=0.5;exitY=1;exitDx=0;exitDy=0;" edge="1" parent="1" source="BYHH9eYI5WnV_k_x5oV5-26" target="BYHH9eYI5WnV_k_x5oV5-27">
          <mxGeometry width="50" height="50" relative="1" as="geometry">
            <mxPoint x="390" y="1340" as="sourcePoint" />
            <mxPoint x="340" y="1390" as="targetPoint" />
          </mxGeometry>
        </mxCell>
        <mxCell id="BYHH9eYI5WnV_k_x5oV5-29" value="c" style="rounded=0;whiteSpace=wrap;html=1;" vertex="1" parent="1">
          <mxGeometry x="320" y="1230" width="80" height="30" as="geometry" />
        </mxCell>
        <mxCell id="BYHH9eYI5WnV_k_x5oV5-30" value="" style="endArrow=classic;html=1;rounded=0;exitX=0.5;exitY=1;exitDx=0;exitDy=0;entryX=0.5;entryY=0;entryDx=0;entryDy=0;" edge="1" parent="1" source="BYHH9eYI5WnV_k_x5oV5-29" target="BYHH9eYI5WnV_k_x5oV5-26">
          <mxGeometry width="50" height="50" relative="1" as="geometry">
            <mxPoint x="190" y="1340" as="sourcePoint" />
            <mxPoint x="190" y="1380" as="targetPoint" />
          </mxGeometry>
        </mxCell>
        <mxCell id="BYHH9eYI5WnV_k_x5oV5-35" style="edgeStyle=orthogonalEdgeStyle;rounded=0;orthogonalLoop=1;jettySize=auto;html=1;exitX=0.5;exitY=1;exitDx=0;exitDy=0;" edge="1" parent="1" source="BYHH9eYI5WnV_k_x5oV5-34" target="BYHH9eYI5WnV_k_x5oV5-29">
          <mxGeometry relative="1" as="geometry" />
        </mxCell>
        <mxCell id="BYHH9eYI5WnV_k_x5oV5-34" value="c" style="rounded=0;whiteSpace=wrap;html=1;" vertex="1" parent="1">
          <mxGeometry x="320" y="1160" width="80" height="30" as="geometry" />
        </mxCell>
        <mxCell id="BYHH9eYI5WnV_k_x5oV5-36" value="c" style="rounded=0;whiteSpace=wrap;html=1;" vertex="1" parent="1">
          <mxGeometry x="320" y="1590" width="80" height="30" as="geometry" />
        </mxCell>
        <mxCell id="BYHH9eYI5WnV_k_x5oV5-37" value="c" style="rounded=0;whiteSpace=wrap;html=1;" vertex="1" parent="1">
          <mxGeometry x="320" y="1660" width="80" height="30" as="geometry" />
        </mxCell>
        <mxCell id="BYHH9eYI5WnV_k_x5oV5-38" value="" style="endArrow=classic;html=1;rounded=0;entryX=0.5;entryY=0;entryDx=0;entryDy=0;exitX=0.5;exitY=1;exitDx=0;exitDy=0;" edge="1" parent="1" source="BYHH9eYI5WnV_k_x5oV5-36" target="BYHH9eYI5WnV_k_x5oV5-37">
          <mxGeometry width="50" height="50" relative="1" as="geometry">
            <mxPoint x="390" y="1630" as="sourcePoint" />
            <mxPoint x="340" y="1680" as="targetPoint" />
          </mxGeometry>
        </mxCell>
        <mxCell id="BYHH9eYI5WnV_k_x5oV5-39" value="c" style="rounded=0;whiteSpace=wrap;html=1;" vertex="1" parent="1">
          <mxGeometry x="320" y="1520" width="80" height="30" as="geometry" />
        </mxCell>
        <mxCell id="BYHH9eYI5WnV_k_x5oV5-40" value="" style="endArrow=classic;html=1;rounded=0;exitX=0.5;exitY=1;exitDx=0;exitDy=0;entryX=0.5;entryY=0;entryDx=0;entryDy=0;" edge="1" parent="1" source="BYHH9eYI5WnV_k_x5oV5-39" target="BYHH9eYI5WnV_k_x5oV5-36">
          <mxGeometry width="50" height="50" relative="1" as="geometry">
            <mxPoint x="190" y="1630" as="sourcePoint" />
            <mxPoint x="190" y="1670" as="targetPoint" />
          </mxGeometry>
        </mxCell>
        <mxCell id="BYHH9eYI5WnV_k_x5oV5-41" style="edgeStyle=orthogonalEdgeStyle;rounded=0;orthogonalLoop=1;jettySize=auto;html=1;exitX=0.5;exitY=1;exitDx=0;exitDy=0;" edge="1" parent="1" source="BYHH9eYI5WnV_k_x5oV5-42" target="BYHH9eYI5WnV_k_x5oV5-39">
          <mxGeometry relative="1" as="geometry" />
        </mxCell>
        <mxCell id="BYHH9eYI5WnV_k_x5oV5-42" value="c" style="rounded=0;whiteSpace=wrap;html=1;" vertex="1" parent="1">
          <mxGeometry x="320" y="1450" width="80" height="30" as="geometry" />
        </mxCell>
        <mxCell id="BYHH9eYI5WnV_k_x5oV5-43" value="f(1)" style="rounded=0;whiteSpace=wrap;html=1;" vertex="1" parent="1">
          <mxGeometry x="320" y="1780" width="80" height="30" as="geometry" />
        </mxCell>
        <mxCell id="BYHH9eYI5WnV_k_x5oV5-44" value="" style="endArrow=none;dashed=1;html=1;rounded=0;entryX=0.5;entryY=1;entryDx=0;entryDy=0;exitX=0.5;exitY=0;exitDx=0;exitDy=0;" edge="1" parent="1" source="BYHH9eYI5WnV_k_x5oV5-43" target="BYHH9eYI5WnV_k_x5oV5-37">
          <mxGeometry width="50" height="50" relative="1" as="geometry">
            <mxPoint x="380" y="1730" as="sourcePoint" />
            <mxPoint x="430" y="1680" as="targetPoint" />
          </mxGeometry>
        </mxCell>
      </root>
    </mxGraphModel>
  </diagram>
</mxfile>
